<?xml version="1.0" encoding="UTF-8" standalone="no"?>
<!-- Created with Inkscape (http://www.inkscape.org/) -->

<svg
   width="252"
   height="131"
   viewBox="9.4 69.7 252.1 131.4"
   version="1.1"
   id="svg1"
   xml:space="preserve"
   inkscape:version="1.3.2 (091e20e, 2023-11-25, custom)"
   sodipodi:docname="mmc_logo.svg"
   xmlns:inkscape="http://www.inkscape.org/namespaces/inkscape"
   xmlns:sodipodi="http://sodipodi.sourceforge.net/DTD/sodipodi-0.dtd"
   xmlns:xlink="http://www.w3.org/1999/xlink"
   xmlns="http://www.w3.org/2000/svg"
   xmlns:svg="http://www.w3.org/2000/svg"><sodipodi:namedview
     id="namedview1"
     pagecolor="#ffffff"
     bordercolor="#000000"
     borderopacity="0.25"
     inkscape:showpageshadow="2"
     inkscape:pageopacity="0.0"
     inkscape:pagecheckerboard="0"
     inkscape:deskcolor="#d1d1d1"
     inkscape:document-units="mm"
     inkscape:zoom="0.51717104"
     inkscape:cx="388.65286"
     inkscape:cy="763.77054"
     inkscape:window-width="1732"
     inkscape:window-height="1008"
     inkscape:window-x="819"
     inkscape:window-y="0"
     inkscape:window-maximized="0"
     inkscape:current-layer="svg1" /><defs
     id="defs1"><linearGradient
       id="linearGradient11"
       inkscape:collect="always"><stop
         style="stop-color:#91dd48;stop-opacity:0.80912864;"
         offset="0"
         id="stop11" /><stop
         style="stop-color:#91dd48;stop-opacity:0;"
         offset="1"
         id="stop12" /></linearGradient><linearGradient
       id="linearGradient9"
       inkscape:collect="always"><stop
         style="stop-color:#5ebe4d;stop-opacity:0.74688798;"
         offset="0"
         id="stop9" /><stop
         style="stop-color:#fcb60d;stop-opacity:0.72199172;"
         offset="1"
         id="stop10" /></linearGradient><linearGradient
       id="linearGradient5"
       inkscape:collect="always"><stop
         style="stop-color:#00a8f3;stop-opacity:0.95435685;"
         offset="0"
         id="stop5" /><stop
         style="stop-color:#ffca18;stop-opacity:0;"
         offset="1"
         id="stop6" /></linearGradient><linearGradient
       inkscape:collect="always"
       xlink:href="#linearGradient5"
       id="linearGradient6"
       x1="103.94646"
       y1="203.5274"
       x2="231.76138"
       y2="134.7796"
       gradientUnits="userSpaceOnUse" /><linearGradient
       inkscape:collect="always"
       xlink:href="#linearGradient11"
       id="linearGradient12"
       x1="177.88539"
       y1="142.77292"
       x2="260.8685"
       y2="135.61055"
       gradientUnits="userSpaceOnUse" /><linearGradient
       inkscape:collect="always"
       xlink:href="#linearGradient9"
       id="linearGradient13"
       gradientUnits="userSpaceOnUse"
       x1="117.2611"
       y1="157.23128"
       x2="132.96916"
       y2="152.11531" /></defs><g
     id="g14"
     style="display:inline"
     transform="translate(-0.99270833,-0.14466157)"><path
       style="display:inline;fill:url(#linearGradient12);stroke:none;stroke-width:0.264999;stroke-opacity:0.745273"
       d="m 13.40684,144.55362 c 37.299975,3.70843 42.339524,36.90266 56.967158,37.60047 14.627634,0.69781 17.476632,-17.10544 26.703961,-18.7692 9.227331,-1.66376 12.427211,33.58087 21.749131,34.23872 9.32191,0.65785 13.77418,-44.45681 30.71295,-49.30903 16.93877,-4.85222 28.74411,30.69043 48.53687,28.90285 19.79276,-1.78758 17.45423,-31.10773 61.435,-32.90409 -24.07557,-2.64942 -31.13475,-0.73304 -38.31536,1.70396 -11.7946,4.00292 -6.07843,4.3328 -24.14128,7.06857 -39.93291,6.04819 -50.1537,-80.216214 -71.64767,-79.489379 -21.49398,0.726835 -27.137274,68.259539 -52.41796,72.717609 -25.280687,4.45808 -11.15709,-5.08022 -59.5828,-1.76048 z"
       id="path8"
       sodipodi:nodetypes="czzzzzcsszzc"
       inkscape:label="Verde Clara" /><path
       style="display:inline;fill:url(#linearGradient13);fill-opacity:1;stroke:none;stroke-width:0.264999;stroke-opacity:0.745273"
       d="m 13.40684,144.55362 c 37.299975,3.70843 42.339524,36.90266 56.967158,37.60047 14.627634,0.69781 17.476632,-17.10544 26.703961,-18.7692 9.227331,-1.66376 12.427211,33.58087 21.749131,34.23872 9.32191,0.65785 13.77418,-44.45681 30.71295,-49.30903 16.93877,-4.85222 28.74411,30.69043 48.53687,28.90285 19.79276,-1.78758 17.9942,-31.18532 61.25679,-33.06945 -12.17776,-1.70972 -28.54531,0.36994 -42.11423,-6.09953 -20.97508,-10.00062 -32.16044,-34.85953 -41.51254,-33.81746 -18.70419,2.08414 -26.51975,36.94568 -48.76453,49.43048 -22.24478,12.4848 -39.861052,-52.91944 -56.956512,-52.17045 -17.095459,0.749 -19.920077,38.20807 -56.579048,43.0626 z"
       id="path12"
       sodipodi:nodetypes="czzzzzcsszzc"
       inkscape:label="Verde Amarilla" /><path
       style="display:inline;fill:url(#linearGradient6);stroke:none;stroke-width:0.264999;stroke-opacity:0.745273"
       d="m 13.40684,144.55362 c 37.299975,3.70843 42.339524,36.90266 56.967158,37.60047 14.627634,0.69781 17.476632,-17.10544 26.703961,-18.7692 9.227331,-1.66376 12.427211,33.58087 21.749131,34.23872 9.32191,0.65785 13.77418,-44.45681 30.71295,-49.30903 16.93877,-4.85222 28.90238,30.59999 48.53687,28.90285 19.63449,-1.69714 19.27691,-32.41909 61.32195,-33.03975 -47.89534,-4.11577 -32.99679,5.92683 -64.5815,9.01415 -31.58471,3.08732 -42.28821,-36.5806 -59.68941,-36.87696 -17.4012,-0.29636 -35.0012,42.62135 -51.328933,41.45186 C 67.471289,156.59724 62.855745,139.95489 13.40684,144.55362 Z"
       id="path4"
       sodipodi:nodetypes="czzzzzczzzc"
       inkscape:label="Azul" /></g></svg>
